<svg xmlns="http://www.w3.org/2000/svg" xmlns:xlink="http://www.w3.org/1999/xlink" viewBox="0 0 85 85" fill="#fff" fill-rule="evenodd" stroke="#000" stroke-linecap="round" stroke-linejoin="round"><use xlink:href="#A" x="2.5" y="2.5"/><symbol id="A" overflow="visible"><g fill="#9d5025" stroke="none"><path d="M0 41.579C0 20.293 17.84 3.157 40 3.157s40 17.136 40 38.422S62.16 80 40 80 0 62.864 0 41.579z"/><path d="M0 38.422h80v3.157H0z"/></g><path d="M0 38.422C0 17.136 17.84 0 40 0s40 17.136 40 38.422-17.84 38.422-40 38.422S0 59.707 0 38.422z" fill="#f58536" stroke="none"/><path d="M66.027 57.298l-3.102-7.816-6.94 2.551-9.924-24.962-2.76-6.907-1.288-3.258-2.037-5.101h-9.32-3.825v8.359h7.151l2.484 6.237-20.69 35.379h9.99l14.749-25.227 10.45 26.275 2.485-.909 5.652-2.071h0l6.927-2.55z" stroke="none"/></symbol></svg>