<svg xmlns="http://www.w3.org/2000/svg" xmlns:xlink="http://www.w3.org/1999/xlink" viewBox="0 0 74.375 85" fill="#fff" fill-rule="evenodd" stroke="#000" stroke-linecap="round" stroke-linejoin="round"><style><![CDATA[.B{stroke:none}.C{fill:#d9a741}.D{fill:#624a1e}.E{fill:#fad791}.F{fill:#876929}]]></style><use xlink:href="#A" x="2.188" y="2.5"/><symbol id="A" overflow="visible"><path d="M14.012 30.536l-4.832.712-9.17-.722L4.451 14.35l9.562 16.185zm9.747-.399L8.964 39.903l9.695 10.039 5.1.751V30.137z" class="B D"/><path d="M8.964 39.902h14.795l.062-10.819-5.162.751-9.695 10.068z" class="B E"/><path d="M33.547 39.942l-9.788 10.751-10.004-10.79 10.066-10.819 9.726 10.859z" class="B C"/><path d="M.01 16.458l4.441-2.107 9.17 8.351-9.17 6.985-4.441.839V16.458z" class="B F"/><path d="M14.012 30.536l-9.561-.849V14.351l9.561 2.127v14.059z" class="B C"/><path d="M0 49.278l4.451 16.166 9.531-16.176-4.843-.712L0 49.278z" class="B E"/><path d="M0 63.337l4.451 2.107 9.304-9.181-9.304-6.146L0 49.278v14.059z" class="B F"/><path d="M13.981 49.268l-9.52.849v15.327l9.52-2.107V49.268z" class="B C"/><path d="M26.582 51.132l-6.872-1.015-9.901 1.015 6.542 19.951 10.231-19.951z" class="B E"/><path d="M19.349 39.932l17.165-11.259-.041 23.922-6.975-1.044-10.149-11.62z" class="B D"/><path d="M19.349 39.932h17.165l-.041-12.722-6.975 1.024-10.149 11.698z" class="B E"/><path d="M36.473 52.595L26.407 39.942 36.473 27.21l8.748 12.693-8.748 12.693z" class="B C"/><path d="M9.809 67.981l6.542 3.103 10.056-11.415-10.056-7.298-6.542-1.239v16.849z" class="B F"/><path d="M26.624 28.673l-6.883 1.015-9.932-1.015 6.542-19.951 10.272 19.951z" class="B D"/><path d="M9.809 11.815l6.542-3.093 9.932 11.434-9.932 7.278-6.542 1.239V11.815z" class="B F"/><path d="M26.623 11.824L16.351 8.722v18.712l10.272 1.239V11.824zm-.041 39.308l-10.231 1.239v18.712l10.231-3.103V51.132z" class="B C"/><path d="M55.308 36.703l-20.586 3.2 10.406 13.873 10.18 1.493V36.703z" class="B D"/><path d="M34.722 39.903h20.586V24.527l-10.18 1.493-10.406 13.883zm10.735 13.999L35.01 52.361l-10.499 1.551 10.468 25.99 10.478-26z" class="B E"/><path d="M45.447 25.99l-10.478 1.444-10.458-1.551L34.979 0l10.468 25.99z" class="B D"/><path d="M67.424 57.073L60.14 56V25.298l7.47-5.766-.186 37.541z" class="B F"/><path d="M33.187 61.063l7.717 1.971 24.553-7.649-5.306-.761-26.963 6.439z" class="B E"/><path d="M34.979 55.902l-10.468-1.99v21.034L34.979 80l13.013-13.571-13.013-10.527zm0-31.892l-10.468 1.873V4.859L34.979 0l8.459 9.2-8.459 14.81z" class="B F"/><path d="M62.984 39.903l-7.676-15.376-10.087 15.376 10.087 15.366 7.676-15.366z" class="B C"/><path d="M37.864 19.825l6.955-6.732 20.627 11.561-5.306.644-22.275-5.473z" class="B D"/><path d="M69.979 16.576L34.979 0v24.01l10.468 1.98v-7.083l20.009 5.737v30.742l-20.009 5.688v-7.151l-10.468 1.981V80L70 63.424l-.021-46.849z" class="B C"/></symbol></svg>